<svg width="399" height="111" viewBox="0 0 399 111" fill="none" xmlns="http://www.w3.org/2000/svg">
<mask id="mask0_1_16" style="mask-type:luminance" maskUnits="userSpaceOnUse" x="0" y="0" width="399" height="111">
<path d="M399 0.333344H0.333328V111H399V0.333344Z" fill="white"/>
</mask>
<g mask="url(#mask0_1_16)">
<path d="M62.4307 51.9011C62.639 52.1928 62.7067 52.5001 62.639 52.8178C62.5817 53.1251 62.4098 53.3907 62.1182 53.6095C55.6182 58.2501 49.6859 62.6459 44.3265 66.797C44.8682 68.5157 44.9307 70.4063 44.514 72.4636C43.8317 76.0157 42.6234 79.3386 40.889 82.422C39.1494 85.5053 37.1182 88.3074 34.7848 90.8386C32.4619 93.3803 30.0348 95.5574 27.4932 97.3803C24.9619 99.198 22.5452 100.62 20.2432 101.651C17.9359 102.677 15.9515 103.255 14.2848 103.38C14.0192 103.422 13.7848 103.443 13.5765 103.443C12.2848 103.443 11.3577 103.177 10.8057 102.651C10.264 102.136 9.90982 101.641 9.74315 101.172C8.78482 98.5313 11.0348 94.1824 16.4932 88.1303C21.9619 82.073 30.2536 74.7136 41.3682 66.047C39.9775 63.5782 37.2015 61.2917 33.0348 59.1928C28.8682 57.099 23.3473 54.6667 16.4723 51.9011C15.6807 51.5678 14.8577 51.2345 14.014 50.9011C13.1807 50.5678 12.3265 50.2136 11.4515 49.8386C8.43586 48.5782 6.3369 46.8751 5.15982 44.7345C3.99315 42.599 3.84732 40.1459 4.72232 37.3803C5.38899 35.2449 6.56086 33.0678 8.24315 30.8595C9.92024 28.6407 11.9567 26.4324 14.3473 24.2345C16.7327 22.0261 19.3317 19.9324 22.139 17.9428C24.9411 15.9428 27.8109 14.1303 30.7432 12.5053C33.6702 10.8699 36.54 9.48445 39.3473 8.35945C42.165 7.22404 44.7536 6.42195 47.1182 5.96362C49.4775 5.49487 51.4775 5.4532 53.1182 5.83862C53.7848 6.00529 54.5244 6.31779 55.3473 6.77612C56.165 7.23445 56.8109 7.97924 57.2848 9.00529C57.7692 10.0365 57.9098 11.4532 57.7015 13.2553C57.6182 13.5886 57.4515 13.8542 57.2015 14.047C56.9515 14.2292 56.6598 14.297 56.3265 14.2553C55.9932 14.2136 55.7223 14.0626 55.514 13.797C55.3057 13.5209 55.2223 13.2136 55.264 12.8803C55.514 11.1199 55.3161 9.94279 54.6807 9.35945C54.0557 8.7657 53.3682 8.38029 52.6182 8.21362C51.0192 7.83862 48.9098 7.97404 46.2848 8.60945C43.6702 9.23445 40.7536 10.2917 37.5348 11.7761C34.3109 13.2657 30.9984 15.099 27.5973 17.2761C23.9984 19.5417 20.764 21.9011 17.889 24.3595C15.014 26.8074 12.6442 29.2032 10.7848 31.547C8.92024 33.8959 7.68065 36.0678 7.05565 38.0678C5.66503 42.3907 7.44107 45.5782 12.389 47.6303C13.264 47.9636 14.1077 48.297 14.9307 48.6303C15.7484 48.9636 16.5765 49.297 17.4098 49.6303C21.6442 51.3542 25.4932 52.9792 28.9515 54.5053C32.4098 56.0365 35.3577 57.599 37.8057 59.1928C40.264 60.7917 42.0973 62.5782 43.3057 64.547C48.5973 60.4376 54.3994 56.1407 60.7223 51.6511C61.014 51.4428 61.3161 51.3751 61.639 51.4428C61.9567 51.5001 62.2223 51.6511 62.4307 51.9011ZM42.1807 71.9636C42.4307 70.698 42.4515 69.5261 42.2432 68.4428C33.3265 75.4272 26.2432 81.5886 20.9932 86.922C17.9359 90.0574 15.5869 92.849 13.9515 95.297C12.3265 97.7553 11.6807 99.4428 12.014 100.359C12.139 100.693 12.4307 100.886 12.889 100.943C13.3473 101.011 13.7484 101.026 14.0973 100.984C15.4723 100.901 17.2067 100.38 19.3057 99.422C21.3994 98.4636 23.6234 97.1303 25.9723 95.422C28.3161 93.724 30.6025 91.7032 32.8265 89.3595C35.0452 87.0105 36.9932 84.3699 38.6598 81.4428C40.3369 78.5105 41.514 75.349 42.1807 71.9636Z" fill="white"/>
<path d="M77.6313 51.9636C77.923 52.1303 78.0948 52.3803 78.1521 52.7136C78.2198 53.047 78.173 53.3699 78.0063 53.672C77.2146 54.922 76.2042 56.3282 74.9855 57.8803C73.7771 59.422 72.4542 60.8959 71.0271 62.297C69.6105 63.7032 68.1938 64.8699 66.7771 65.797C65.3709 66.7136 64.0896 67.172 62.923 67.172C62.423 67.172 61.9855 67.0886 61.6105 66.922C60.1782 66.297 59.3865 64.7865 59.2355 62.3803C59.1 59.9636 59.5896 56.5574 60.7146 52.1511C60.798 51.8178 60.9855 51.5678 61.2771 51.4011C61.5792 51.2345 61.8813 51.1928 62.173 51.2761C62.5063 51.3595 62.7563 51.547 62.923 51.8386C63.0896 52.1303 63.1313 52.422 63.048 52.7136C62.3813 55.3959 61.9646 57.5261 61.798 59.1095C61.6313 60.6824 61.5948 61.8595 61.6938 62.6511C61.8032 63.4428 61.9646 63.9792 62.173 64.2553C62.3813 64.5365 62.5063 64.672 62.548 64.672C63.0896 64.922 63.8813 64.7449 64.923 64.1303C65.975 63.5209 67.1521 62.6199 68.4438 61.422C69.7459 60.2292 71.0584 58.849 72.3813 57.2761C73.699 55.7084 74.8865 54.0626 75.9438 52.3386C76.1521 52.047 76.4073 51.8751 76.7146 51.8178C77.0323 51.7501 77.3396 51.797 77.6313 51.9636ZM62.798 46.9428C61.9646 46.9011 61.5323 46.6615 61.5063 46.2136C61.4907 45.7709 61.6782 45.3178 62.0688 44.8595C62.4698 44.4011 62.8813 44.0886 63.298 43.922C63.9646 43.7136 64.4542 43.7553 64.7771 44.047C65.0948 44.3386 65.2407 44.7136 65.2146 45.172C65.199 45.6303 64.9907 46.0574 64.5896 46.4428C64.1834 46.8178 63.5896 46.9845 62.798 46.9428Z" fill="white"/>
<path d="M110.197 52.2136C110.447 52.422 110.578 52.7032 110.593 53.047C110.619 53.3803 110.531 53.672 110.322 53.922C104.989 60.1616 100.77 62.6928 97.6765 61.5261C95.4525 60.6824 94.2598 58.0209 94.0932 53.547C93.6348 54.3803 93.14 55.3334 92.614 56.4011C92.0984 57.4741 91.6661 58.3386 91.3223 59.0053C91.0723 59.6303 90.8223 60.2032 90.5723 60.7136C90.3223 61.2136 90.0932 61.6303 89.8848 61.9636C89.7598 62.2136 89.5359 62.5834 89.2182 63.0678C88.9109 63.5418 88.515 63.9584 88.0307 64.3178C87.5411 64.6824 86.989 64.7761 86.364 64.6095C85.614 64.3907 85.0515 63.8334 84.6765 62.9428C84.3015 62.0418 84.0619 61.0574 83.9682 59.9845C83.8848 58.9168 83.8432 58.047 83.8432 57.3803C83.8432 56.8282 83.8432 56.297 83.8432 55.797C83.8432 55.297 83.864 54.8386 83.9057 54.422C82.4473 56.5209 81.0411 58.6876 79.6973 60.922C78.364 63.1616 76.9369 65.7293 75.4265 68.6303C74.9265 69.5886 74.3848 70.0678 73.8015 70.0678C73.5932 70.0678 73.4057 70.0053 73.239 69.8803C73.0307 69.797 72.8432 69.6563 72.6765 69.4636C72.4994 69.2813 72.4004 68.9063 72.3848 68.3386C72.3588 67.7657 72.4421 66.9011 72.6348 65.7345C72.8327 64.5574 73.1973 62.922 73.739 60.8386C74.364 58.2709 75.1036 55.7293 75.9682 53.2136C76.8275 50.7032 77.6973 48.4428 78.5723 46.4428C78.6973 46.0991 78.9109 45.8595 79.2182 45.7345C79.5359 45.6095 79.8432 45.6303 80.1348 45.797C80.4786 45.9376 80.7025 46.1668 80.8015 46.4845C80.9109 46.7918 80.9057 47.0886 80.7807 47.3803C79.64 50.0209 78.6192 52.7761 77.7182 55.6511C76.8119 58.5157 76.114 61.0157 75.614 63.1511C76.9161 60.8491 78.1973 58.7032 79.4473 56.7136C80.7077 54.7293 82.0307 52.7918 83.4057 50.9011C83.5307 50.7345 83.7494 50.5053 84.0723 50.2136C84.39 49.922 84.8223 49.8595 85.364 50.0261C85.9057 50.2345 86.2025 50.6303 86.2598 51.2136C86.3275 51.797 86.3432 52.7866 86.3015 54.172C86.3015 54.6303 86.2859 55.1303 86.2598 55.672C86.2442 56.2136 86.239 56.7866 86.239 57.3803C86.239 58.6303 86.3223 59.6616 86.489 60.4636C86.6557 61.2553 86.8015 61.797 86.9265 62.0886C87.0098 62.0053 87.1192 61.8595 87.2598 61.6511C87.4109 61.4428 87.5984 61.172 87.8223 60.8386C87.989 60.5366 88.1817 60.1303 88.4057 59.6303C88.64 59.1303 88.9057 58.5886 89.1973 58.0053C90.2807 55.6616 91.1661 53.8595 91.864 52.6095C92.5567 51.3491 93.1557 50.4845 93.6557 50.0261C94.1557 49.5574 94.6817 49.3803 95.239 49.5053C95.9057 49.6876 96.2859 50.1043 96.3848 50.7553C96.4942 51.3959 96.5515 51.9011 96.5515 52.2761C96.5098 54.2501 96.6609 55.8491 97.0098 57.0678C97.3692 58.2761 97.8848 59.0053 98.5515 59.2553C99.3119 59.547 100.52 59.2136 102.176 58.2553C103.828 57.2866 105.932 55.3126 108.489 52.3386C108.697 52.0886 108.968 51.9584 109.301 51.9428C109.635 51.9168 109.932 52.0053 110.197 52.2136Z" fill="white"/>
<path d="M130.235 52.5886C130.526 52.797 130.693 53.0782 130.735 53.422C130.776 53.7553 130.693 54.047 130.485 54.297C129.401 55.672 128.136 56.9116 126.693 58.0053C125.245 59.0886 123.735 59.8959 122.151 60.422C120.578 60.9532 119.068 61.0418 117.61 60.6928C117.011 62.1668 116.177 63.3074 115.11 64.1095C114.052 64.9011 112.974 65.297 111.881 65.297C111.881 65.297 111.865 65.297 111.839 65.297C111.823 65.297 111.818 65.297 111.818 65.297C110.693 65.2553 109.698 64.8699 108.839 64.1303C107.974 63.3959 107.381 62.3803 107.047 61.0886C106.672 59.6199 106.61 58.2241 106.86 56.9011C107.11 55.5834 107.568 54.422 108.235 53.422C108.901 52.4116 109.657 51.6303 110.506 51.0886C110.797 50.8803 111.131 50.8386 111.506 50.9636C111.881 50.0366 112.412 49.3178 113.11 48.8178C113.802 48.3178 114.526 48.1303 115.276 48.2553C115.735 48.3386 116.235 48.6251 116.776 49.1095C117.328 49.5991 117.776 50.4584 118.11 51.6928C118.443 52.9324 118.547 54.7449 118.422 57.1303C118.381 57.547 118.318 57.9636 118.235 58.3803C119.36 58.5886 120.547 58.4636 121.797 58.0053C123.058 57.547 124.276 56.8491 125.443 55.9011C126.62 54.9584 127.657 53.9168 128.547 52.7761C128.756 52.5261 129.026 52.3803 129.36 52.3386C129.693 52.297 129.985 52.3803 130.235 52.5886ZM111.881 62.8386C112.422 62.8386 113.026 62.5886 113.693 62.0886C114.37 61.5886 114.922 60.8334 115.339 59.8178C113.839 58.9845 112.761 58.0261 112.11 56.9428C111.453 55.8491 111.11 54.7553 111.068 53.672C110.193 54.5053 109.615 55.5782 109.339 56.8803C109.058 58.172 109.073 59.3386 109.381 60.3803C109.506 60.8543 109.756 61.3803 110.131 61.9636C110.506 62.547 111.089 62.8386 111.881 62.8386ZM115.964 56.9845C116.047 55.3178 116.011 54.0261 115.86 53.1095C115.719 52.1824 115.547 51.547 115.339 51.2136C115.131 50.8803 114.985 50.6928 114.901 50.6511C114.86 50.6511 114.839 50.6511 114.839 50.6511C114.714 50.6511 114.526 50.7761 114.276 51.0261C114.026 51.2761 113.818 51.6511 113.651 52.1511C113.401 52.9428 113.422 53.8126 113.714 54.7553C114.006 55.7032 114.756 56.5782 115.964 57.3803C115.964 57.2553 115.964 57.1251 115.964 56.9845Z" fill="white"/>
<path d="M152.931 52.2761C153.222 52.4428 153.41 52.6876 153.493 53.0053C153.576 53.3282 153.535 53.6303 153.368 53.922C151.394 57.3959 149.623 60.0678 148.056 61.9428C146.483 63.8074 144.878 64.6251 143.243 64.4011C141.144 64.1511 139.493 61.8959 138.285 57.6303C137.868 56.2449 137.498 55.2501 137.181 54.6511C136.858 54.0418 136.602 53.6616 136.41 53.5053C136.227 53.3543 136.097 53.2761 136.014 53.2761C135.889 53.2345 135.639 53.3699 135.264 53.672C134.889 53.9636 134.337 54.6199 133.618 55.6303C132.91 56.6303 132.024 58.1876 130.972 60.297C129.931 62.4116 128.66 65.3126 127.16 69.0053C126.951 69.5053 126.597 69.7553 126.097 69.7553C125.972 69.7553 125.868 69.7345 125.785 69.6928C125.066 69.5261 124.743 69.0886 124.826 68.3803C125.035 66.6563 125.42 64.6668 125.972 62.4011C126.514 60.1407 127.108 57.8334 127.743 55.4845C128.394 53.1407 128.998 51.0418 129.556 49.1928C129.681 48.7761 129.79 48.3959 129.889 48.047C129.998 47.6876 130.097 47.3386 130.181 47.0053C130.306 46.672 130.514 46.4376 130.806 46.297C131.097 46.1459 131.389 46.1095 131.681 46.1928C132.014 46.2761 132.264 46.4636 132.431 46.7553C132.597 47.047 132.618 47.3595 132.493 47.6928C132.41 48.0261 132.311 48.3751 132.201 48.7345C132.102 49.0834 131.993 49.4741 131.868 49.9011C131.576 50.9845 131.243 52.1824 130.868 53.4845C130.493 54.7761 130.118 56.0991 129.743 57.4428C131.16 54.7657 132.368 52.9845 133.368 52.1095C134.378 51.2241 135.306 50.797 136.139 50.8386C137.316 50.922 138.243 51.5782 138.91 52.797C139.576 54.0053 140.144 55.4011 140.618 56.9845C141.243 59.1668 141.826 60.5574 142.368 61.1511C142.91 61.7345 143.306 62.0261 143.556 62.0261C144.108 62.1095 144.748 61.8074 145.472 61.1095C146.207 60.4168 146.941 59.5366 147.681 58.4636C148.415 57.3959 149.102 56.3386 149.743 55.297C150.394 54.2553 150.889 53.3959 151.222 52.7136C151.389 52.422 151.639 52.2345 151.972 52.1511C152.316 52.0678 152.639 52.1095 152.931 52.2761Z" fill="white"/>
<path d="M218.977 76.1095C219.32 76.1095 219.607 76.2188 219.831 76.4428C220.065 76.6772 220.185 76.9636 220.185 77.297C220.185 77.6303 220.06 77.9063 219.81 78.1303C219.56 78.3647 219.258 78.4845 218.914 78.4845C216.789 78.4428 214.372 78.922 211.664 79.922C208.956 80.9324 206.133 82.2136 203.206 83.7553C200.273 85.3074 197.425 86.8647 194.664 88.422C190.966 90.5157 187.633 92.3178 184.664 93.8178C181.69 95.3282 179.175 96.0886 177.122 96.0886C175.997 96.0886 175.05 95.8178 174.289 95.2761C172.372 93.8022 171.977 90.5938 173.102 85.6511C173.81 82.6355 174.654 79.1511 175.643 75.1928C176.628 71.2345 177.706 67.0261 178.872 62.5678C180.05 58.0991 181.258 53.5678 182.497 48.9845C183.732 44.3907 184.961 39.9793 186.185 35.7553C187.81 30.0886 189.216 25.3178 190.414 21.4428C191.607 17.5678 192.633 14.3959 193.497 11.922C194.357 9.45322 195.081 7.54697 195.664 6.21363C196.247 4.86988 196.747 3.91676 197.164 3.35947C197.591 2.79176 197.94 2.46363 198.206 2.3803C198.482 2.29697 198.747 2.27613 198.997 2.3178C199.789 2.4428 200.247 3.04176 200.372 4.10947C200.497 5.18238 200.477 6.84905 200.31 9.10947C200.268 9.4428 200.122 9.71363 199.872 9.92197C199.622 10.1303 199.331 10.2136 198.997 10.172C198.664 10.172 198.378 10.047 198.143 9.79697C197.919 9.54697 197.831 9.25009 197.872 8.90113C197.956 8.15113 198.018 7.46363 198.06 6.83863C197.56 7.96363 196.878 9.72405 196.018 12.1095C195.154 14.5001 194.07 17.8074 192.768 22.0261C191.477 26.2345 189.883 31.6459 187.997 38.2553C186.831 42.3699 185.648 46.6407 184.456 51.0678C183.258 55.4845 182.091 59.8386 180.956 64.1303C179.831 68.422 178.794 72.4636 177.852 76.2553C176.904 80.047 176.122 83.3647 175.497 86.2136C175.122 87.8907 174.919 89.2241 174.893 90.2136C174.862 91.198 174.945 91.922 175.143 92.3803C175.336 92.8386 175.539 93.1511 175.747 93.3178C176.331 93.7345 177.237 93.8022 178.477 93.5261C179.711 93.2605 181.143 92.7553 182.768 92.0053C184.404 91.2553 186.148 90.3699 187.997 89.3595C189.841 88.3595 191.669 87.3491 193.477 86.3386C196.32 84.7136 199.258 83.0991 202.289 81.5053C205.331 79.9063 208.273 78.5886 211.122 77.547C213.966 76.5053 216.586 76.0261 218.977 76.1095Z" fill="white"/>
<path d="M238.278 52.3386C238.569 52.4636 238.762 52.6876 238.861 53.0053C238.97 53.3282 238.965 53.6303 238.84 53.922C238.048 55.547 237.179 57.1824 236.236 58.8178C235.288 60.4584 234.304 61.9584 233.278 63.3178C232.246 64.6824 231.184 65.7657 230.09 66.5678C229.007 67.3855 227.923 67.797 226.84 67.797C226.632 67.797 226.403 67.7761 226.153 67.7345C223.345 67.1928 221.6 63.422 220.923 56.422C220.215 57.3959 219.387 58.4793 218.444 59.672C217.496 60.8699 216.507 62.047 215.465 63.2136C215.298 63.3803 215.028 63.6459 214.653 64.0053C214.278 64.3699 213.83 64.6511 213.319 64.8595C212.819 65.0678 212.319 65.047 211.819 64.797C210.819 64.4116 210.34 63.3178 210.382 61.5261C210.382 60.4741 210.585 59.172 210.986 57.6303C211.377 56.0782 211.934 54.5157 212.653 52.9428C213.387 51.3751 214.246 49.9845 215.236 48.7761C216.22 47.5574 217.324 46.7345 218.548 46.3178C219.298 46.0157 220.215 45.9584 221.298 46.1511C222.392 46.3491 223.528 47.1303 224.694 48.5053C224.913 48.7553 225.012 49.0574 224.986 49.4011C224.97 49.7345 224.83 50.0053 224.569 50.2136C224.319 50.422 224.028 50.5209 223.694 50.5053C223.361 50.4793 223.09 50.3386 222.882 50.0886C221.882 48.9116 221.012 48.3543 220.278 48.422C219.538 48.4793 218.923 48.6928 218.423 49.0678C217.491 49.7501 216.653 50.7241 215.903 51.9845C215.153 53.2345 214.517 54.5574 214.007 55.9428C213.507 57.3178 213.153 58.6043 212.944 59.797C212.736 60.9949 212.673 61.8595 212.757 62.4011C212.882 62.3178 213.012 62.2136 213.153 62.0886C213.304 61.9636 213.465 61.797 213.632 61.5886C214.892 60.2032 216.048 58.8282 217.09 57.4636C218.142 56.1043 219.048 54.9011 219.798 53.8595C220.007 53.5678 220.199 53.2866 220.382 53.0053C220.574 52.7293 220.757 52.4845 220.923 52.2761C221.267 51.8595 221.715 51.7345 222.257 51.9011C222.798 52.0261 223.09 52.3803 223.132 52.9636C223.257 55.7032 223.47 57.8959 223.778 59.547C224.095 61.2032 224.444 62.4376 224.819 63.2553C225.205 64.0782 225.569 64.6303 225.903 64.922C226.236 65.2136 226.486 65.3595 226.653 65.3595C227.444 65.5261 228.72 64.7084 230.486 62.9011C232.246 61.0991 234.304 57.7657 236.653 52.9011C236.819 52.5678 237.054 52.3543 237.361 52.2553C237.679 52.1459 237.986 52.172 238.278 52.3386Z" fill="white"/>
<mask id="mask1_1_16" style="mask-type:luminance" maskUnits="userSpaceOnUse" x="225" y="20" width="28" height="91">
<path d="M225.667 20.3333H252.333V110.042H225.667V20.3333Z" fill="white"/>
</mask>
<g mask="url(#mask1_1_16)">
<path d="M248.075 49.6303C248.419 49.5886 248.726 49.6824 248.992 49.9011C249.268 50.1095 249.429 50.3803 249.471 50.7136C249.513 51.047 249.429 51.3386 249.221 51.5886C249.013 51.8386 248.742 51.9845 248.408 52.0261C246.851 52.2345 245.398 52.4168 244.054 52.5678C242.721 52.7084 241.315 52.8595 239.846 53.0261C238.596 58.2345 237.377 63.4636 236.2 68.7136C235.033 73.9741 233.96 78.9741 232.971 83.7136C231.986 88.448 231.148 92.6563 230.45 96.3386C229.757 100.031 229.263 102.922 228.971 105.005C229.013 105.005 229.075 105.005 229.158 105.005C229.45 105.141 229.674 105.365 229.825 105.672C229.981 105.99 229.992 106.297 229.867 106.589C229.606 107.38 229.304 108.099 228.971 108.755C228.638 109.406 228.2 109.734 227.658 109.734C227.533 109.734 227.408 109.714 227.283 109.672C226.867 109.547 226.591 109.281 226.45 108.88C226.299 108.474 226.278 107.677 226.388 106.484C226.486 105.287 226.742 103.453 227.158 100.984C227.908 96.4688 229.065 90.5678 230.617 83.2761C231.617 78.3282 232.695 73.2761 233.846 68.1095C235.002 62.9584 236.164 57.9949 237.346 53.2136C235.914 53.3543 234.236 53.5053 232.304 53.672C232.263 53.672 232.221 53.672 232.179 53.672C231.471 53.672 231.075 53.2918 230.992 52.5261C230.992 52.1928 231.096 51.9011 231.304 51.6511C231.513 51.4011 231.783 51.2553 232.117 51.2136C233.257 51.1303 234.299 51.0626 235.242 51.0053C236.169 50.9376 237.059 50.8595 237.908 50.7761C238.992 46.4168 239.997 42.4584 240.929 38.9011C241.138 38.099 241.45 36.9845 241.867 35.5678C242.283 34.1407 242.768 32.6095 243.325 30.9845C243.893 29.349 244.502 27.7866 245.158 26.297C245.809 24.8126 246.492 23.5678 247.2 22.5678C247.919 21.5574 248.638 20.9845 249.346 20.8595C250.054 20.7345 250.617 20.9845 251.033 21.6095C251.575 22.4011 251.679 23.7032 251.346 25.5053C251.013 27.3126 250.351 29.4324 249.367 31.8595C248.377 34.2918 247.19 36.849 245.804 39.5261C244.429 42.2084 242.929 44.8282 241.304 47.3803C241.263 47.422 241.242 47.4636 241.242 47.5053C241.117 48.0053 240.981 48.5157 240.846 49.0261C240.721 49.5261 240.596 50.0261 240.471 50.5261C241.731 50.4011 242.971 50.2761 244.179 50.1511C245.398 50.0261 246.7 49.8543 248.075 49.6303ZM249.033 24.1928C248.434 25.0678 247.643 26.6511 246.658 28.9428C245.684 31.224 244.585 34.5834 243.367 39.0261C245.377 35.2501 246.794 32.1199 247.617 29.6303C248.434 27.1303 248.908 25.3178 249.033 24.1928Z" fill="white"/>
</g>
<path d="M277.176 52.0262C277.478 52.1928 277.697 52.4376 277.822 52.7553C277.947 53.0626 277.926 53.3699 277.759 53.672C276.952 55.3803 275.973 57.3074 274.822 59.4428C273.665 61.5834 272.436 63.7345 271.134 65.9012C269.842 68.0522 268.519 70.0157 267.176 71.797C265.842 73.573 264.54 75.0157 263.28 76.1303C262.03 77.2397 260.905 77.797 259.905 77.797C259.613 77.797 259.342 77.7345 259.092 77.6095C258.202 77.2762 257.618 76.4741 257.342 75.2137C257.077 73.9637 257.113 72.1616 257.447 69.8178C258.03 65.5834 259.577 59.5887 262.092 51.8387C262.051 51.8387 262.014 51.8543 261.988 51.8803C261.973 51.8959 261.947 51.9012 261.905 51.9012C261.072 52.4845 260.061 53.0991 258.884 53.7345C257.717 54.3595 256.499 54.7762 255.238 54.9845C253.988 55.1928 252.801 54.922 251.676 54.172C250.077 53.0366 249.259 51.4637 249.217 49.4637C249.176 47.4532 249.931 45.2501 251.488 42.8595C251.988 42.0991 252.639 41.2553 253.447 40.3387C254.264 39.422 255.124 38.7137 256.03 38.2137C256.931 37.7032 257.738 37.672 258.447 38.1303C258.832 38.3387 259.118 38.7032 259.301 39.2137C259.493 39.7137 259.488 40.4949 259.28 41.547C259.072 42.5887 258.561 43.9949 257.759 45.7553C256.967 47.5053 255.769 49.7866 254.176 52.5887C255.144 52.7137 256.228 52.4428 257.426 51.7762C258.618 51.1095 259.676 50.4845 260.592 49.9012C261.467 49.3074 262.197 48.8751 262.78 48.6095C263.374 48.3334 263.926 48.3803 264.426 48.7553C264.884 49.1303 265.072 49.5991 264.988 50.1512C264.905 50.6928 264.822 51.1095 264.738 51.4012C263.363 55.7657 262.29 59.3907 261.53 62.2762C260.78 65.1668 260.264 67.4897 259.988 69.2553C259.723 71.0157 259.592 72.3387 259.592 73.2137C259.592 74.0887 259.655 74.6564 259.78 74.922C259.905 75.198 259.967 75.3595 259.967 75.4012C260.467 75.4845 261.499 74.6772 263.072 72.9845C264.639 71.2866 266.514 68.7345 268.697 65.3178C270.874 61.9012 273.16 57.6824 275.551 52.6512C275.717 52.3178 275.952 52.1043 276.259 52.0053C276.577 51.8959 276.884 51.9012 277.176 52.0262ZM251.863 47.7553C251.613 48.6303 251.535 49.3543 251.634 49.922C251.743 50.4949 251.905 50.9428 252.113 51.2762C253.447 48.9324 254.457 47.0262 255.155 45.5678C255.848 44.0991 256.322 42.9637 256.572 42.172C256.822 41.3699 256.967 40.797 257.009 40.4637C256.551 40.7137 255.973 41.2032 255.28 41.922C254.582 42.6303 253.91 43.4949 253.259 44.5053C252.618 45.5053 252.155 46.5887 251.863 47.7553Z" fill="white"/>
<path d="M295.92 52.2761C296.212 52.4428 296.379 52.7032 296.42 53.047C296.462 53.3803 296.399 53.672 296.233 53.922C293.759 57.3543 291.493 60.1928 289.441 62.4428C287.384 64.6824 285.326 66.5261 283.274 67.9845C281.733 69.0782 280.201 69.6303 278.691 69.6303C277.524 69.6303 276.493 69.3178 275.608 68.6928C275.024 68.2605 274.457 67.5105 273.899 66.4428C273.332 65.3907 273.024 63.849 272.983 61.8178C272.941 59.7761 273.441 57.1043 274.483 53.797C274.483 53.797 274.483 53.7761 274.483 53.7345C275.733 49.7084 277.201 46.6407 278.899 44.5261C280.608 42.4011 282.066 41.3178 283.274 41.2761C284.243 41.2345 284.879 41.6615 285.17 42.547C285.629 43.7553 285.076 45.4845 283.524 47.7345C281.983 49.974 279.701 52.349 276.691 54.8595C275.759 57.7918 275.316 60.0834 275.358 61.7345C275.399 63.3907 275.629 64.5834 276.045 65.3178C276.472 66.0574 276.816 66.5261 277.066 66.7345C278.316 67.6511 279.925 67.4011 281.899 65.9845C283.826 64.6407 285.774 62.8907 287.733 60.7345C289.701 58.5834 291.863 55.849 294.212 52.5261C294.42 52.2761 294.691 52.1251 295.024 52.0678C295.368 52.0001 295.67 52.0678 295.92 52.2761ZM282.837 43.922C282.379 44.2136 281.743 44.8334 280.941 45.7761C280.149 46.724 279.337 48.099 278.504 49.9011C280.014 48.4324 281.087 47.1824 281.712 46.1511C282.337 45.1251 282.712 44.3803 282.837 43.922Z" fill="white"/>
<path d="M318.293 52.2761C318.585 52.4428 318.773 52.6876 318.856 53.0053C318.939 53.3282 318.898 53.6303 318.731 53.922C316.757 57.3959 314.986 60.0678 313.418 61.9428C311.845 63.8074 310.241 64.6251 308.606 64.4011C306.507 64.1511 304.856 61.8959 303.648 57.6303C303.231 56.2449 302.861 55.2501 302.543 54.6511C302.22 54.0418 301.965 53.6616 301.773 53.5053C301.59 53.3543 301.46 53.2761 301.377 53.2761C301.252 53.2345 301.002 53.3699 300.627 53.672C300.252 53.9636 299.7 54.6199 298.981 55.6303C298.273 56.6303 297.387 58.1876 296.335 60.297C295.293 62.4116 294.023 65.3126 292.523 69.0053C292.314 69.5053 291.96 69.7553 291.46 69.7553C291.335 69.7553 291.231 69.7345 291.148 69.6928C290.429 69.5261 290.106 69.0886 290.189 68.3803C290.398 66.6563 290.783 64.6668 291.335 62.4011C291.877 60.1407 292.47 57.8334 293.106 55.4845C293.757 53.1407 294.361 51.0418 294.918 49.1928C295.043 48.7761 295.153 48.3959 295.252 48.047C295.361 47.6876 295.46 47.3386 295.543 47.0053C295.668 46.672 295.877 46.4376 296.168 46.297C296.46 46.1459 296.752 46.1095 297.043 46.1928C297.377 46.2761 297.627 46.4636 297.793 46.7553C297.96 47.047 297.981 47.3595 297.856 47.6928C297.773 48.0261 297.674 48.3751 297.564 48.7345C297.465 49.0834 297.356 49.4741 297.231 49.9011C296.939 50.9845 296.606 52.1824 296.231 53.4845C295.856 54.7761 295.481 56.0991 295.106 57.4428C296.523 54.7657 297.731 52.9845 298.731 52.1095C299.741 51.2241 300.668 50.797 301.502 50.8386C302.679 50.922 303.606 51.5782 304.273 52.797C304.939 54.0053 305.507 55.4011 305.981 56.9845C306.606 59.1668 307.189 60.5574 307.731 61.1511C308.273 61.7345 308.668 62.0261 308.918 62.0261C309.47 62.1095 310.111 61.8074 310.835 61.1095C311.569 60.4168 312.304 59.5366 313.043 58.4636C313.778 57.3959 314.465 56.3386 315.106 55.297C315.757 54.2553 316.252 53.3959 316.585 52.7136C316.752 52.422 317.002 52.2345 317.335 52.1511C317.679 52.0678 318.002 52.1095 318.293 52.2761Z" fill="white"/>
<path d="M333.815 51.9636C334.106 52.1303 334.278 52.3803 334.336 52.7136C334.403 53.047 334.356 53.3699 334.19 53.672C333.398 54.922 332.388 56.3282 331.169 57.8803C329.961 59.422 328.638 60.8959 327.211 62.297C325.794 63.7032 324.377 64.8699 322.961 65.797C321.554 66.7136 320.273 67.172 319.106 67.172C318.606 67.172 318.169 67.0886 317.794 66.922C316.362 66.297 315.57 64.7865 315.419 62.3803C315.284 59.9636 315.773 56.5574 316.898 52.1511C316.981 51.8178 317.169 51.5678 317.461 51.4011C317.763 51.2345 318.065 51.1928 318.356 51.2761C318.69 51.3595 318.94 51.547 319.106 51.8386C319.273 52.1303 319.315 52.422 319.231 52.7136C318.565 55.3959 318.148 57.5261 317.981 59.1095C317.815 60.6824 317.778 61.8595 317.877 62.6511C317.987 63.4428 318.148 63.9792 318.356 64.2553C318.565 64.5365 318.69 64.672 318.731 64.672C319.273 64.922 320.065 64.7449 321.106 64.1303C322.159 63.5209 323.336 62.6199 324.627 61.422C325.929 60.2292 327.242 58.849 328.565 57.2761C329.882 55.7084 331.07 54.0626 332.127 52.3386C332.336 52.047 332.591 51.8751 332.898 51.8178C333.216 51.7501 333.523 51.797 333.815 51.9636ZM318.981 46.9428C318.148 46.9011 317.716 46.6615 317.69 46.2136C317.674 45.7709 317.862 45.3178 318.252 44.8595C318.653 44.4011 319.065 44.0886 319.481 43.922C320.148 43.7136 320.638 43.7553 320.961 44.047C321.278 44.3386 321.424 44.7136 321.398 45.172C321.382 45.6303 321.174 46.0574 320.773 46.4428C320.367 46.8178 319.773 46.9845 318.981 46.9428Z" fill="white"/>
<path d="M352.55 53.1511C352.841 53.3751 353.008 53.6459 353.05 53.9636C353.091 54.2709 353.029 54.5678 352.862 54.8595C350.388 58.2501 348.112 61.0782 346.029 63.3386C343.956 65.6043 341.914 67.448 339.904 68.8803C338.362 70.0053 336.81 70.5678 335.258 70.5678C334.133 70.5678 333.123 70.2345 332.237 69.5678C331.654 69.1511 331.071 68.4063 330.487 67.3386C329.904 66.2709 329.607 64.7293 329.591 62.7136C329.565 60.7032 330.05 58.0209 331.05 54.672C331.05 54.672 331.071 54.672 331.112 54.672C332.362 50.6043 333.831 47.5157 335.529 45.4011C337.237 43.2761 338.696 42.1928 339.904 42.1511C340.873 42.1511 341.508 42.5991 341.8 43.4845C342.258 44.6928 341.706 46.4116 340.154 48.6303C338.612 50.8543 336.331 53.2241 333.321 55.7345C332.388 58.6668 331.946 60.9636 331.987 62.6303C332.029 64.2866 332.258 65.4845 332.675 66.2345C333.102 66.9845 333.446 67.4428 333.696 67.6095C334.946 68.5366 336.555 68.3074 338.529 66.922C340.414 65.5886 342.352 63.8334 344.341 61.6511C346.326 59.4741 348.492 56.7501 350.841 53.4845C351.05 53.1824 351.321 53.0001 351.654 52.9428C351.998 52.8751 352.3 52.9428 352.55 53.1511ZM339.466 44.797C339.008 45.0886 338.373 45.7241 337.571 46.6928C336.779 47.6511 335.966 49.0366 335.133 50.8386C336.643 49.3282 337.716 48.0678 338.341 47.0678C338.966 46.0574 339.341 45.297 339.466 44.797ZM336.571 38.9011L333.946 33.672C333.821 33.3803 333.805 33.0834 333.904 32.7761C334.013 32.4584 334.216 32.2136 334.508 32.047C334.8 31.922 335.097 31.9168 335.404 32.0261C335.722 32.1251 335.966 32.3178 336.133 32.6095L338.779 37.8178C338.904 38.1095 338.909 38.4168 338.8 38.7345C338.701 39.0574 338.508 39.297 338.216 39.4636C338.05 39.547 337.883 39.5886 337.716 39.5886C337.216 39.5886 336.831 39.3595 336.571 38.9011Z" fill="white"/>
<path d="M377.173 52.0262C377.475 52.1928 377.694 52.4376 377.819 52.7553C377.944 53.0626 377.923 53.3699 377.756 53.672C376.949 55.3803 375.97 57.3074 374.819 59.4428C373.662 61.5834 372.433 63.7345 371.131 65.9012C369.839 68.0522 368.517 70.0157 367.173 71.797C365.839 73.573 364.537 75.0157 363.277 76.1303C362.027 77.2397 360.902 77.797 359.902 77.797C359.61 77.797 359.339 77.7345 359.089 77.6095C358.199 77.2762 357.616 76.4741 357.339 75.2137C357.074 73.9637 357.11 72.1616 357.444 69.8178C358.027 65.5834 359.574 59.5887 362.089 51.8387C362.048 51.8387 362.011 51.8543 361.985 51.8803C361.97 51.8959 361.944 51.9012 361.902 51.9012C361.069 52.4845 360.058 53.0991 358.881 53.7345C357.714 54.3595 356.496 54.7762 355.235 54.9845C353.985 55.1928 352.798 54.922 351.673 54.172C350.074 53.0366 349.256 51.4637 349.214 49.4637C349.173 47.4532 349.928 45.2501 351.485 42.8595C351.985 42.0991 352.636 41.2553 353.444 40.3387C354.261 39.422 355.121 38.7137 356.027 38.2137C356.928 37.7032 357.735 37.672 358.444 38.1303C358.829 38.3387 359.116 38.7032 359.298 39.2137C359.491 39.7137 359.485 40.4949 359.277 41.547C359.069 42.5887 358.558 43.9949 357.756 45.7553C356.964 47.5053 355.767 49.7866 354.173 52.5887C355.142 52.7137 356.225 52.4428 357.423 51.7762C358.616 51.1095 359.673 50.4845 360.589 49.9012C361.464 49.3074 362.194 48.8751 362.777 48.6095C363.371 48.3334 363.923 48.3803 364.423 48.7553C364.881 49.1303 365.069 49.5991 364.985 50.1512C364.902 50.6928 364.819 51.1095 364.735 51.4012C363.36 55.7657 362.287 59.3907 361.527 62.2762C360.777 65.1668 360.261 67.4897 359.985 69.2553C359.72 71.0157 359.589 72.3387 359.589 73.2137C359.589 74.0887 359.652 74.6564 359.777 74.922C359.902 75.198 359.964 75.3595 359.964 75.4012C360.464 75.4845 361.496 74.6772 363.069 72.9845C364.636 71.2866 366.511 68.7345 368.694 65.3178C370.871 61.9012 373.157 57.6824 375.548 52.6512C375.714 52.3178 375.949 52.1043 376.256 52.0053C376.574 51.8959 376.881 51.9012 377.173 52.0262ZM351.86 47.7553C351.61 48.6303 351.532 49.3543 351.631 49.922C351.741 50.4949 351.902 50.9428 352.11 51.2762C353.444 48.9324 354.454 47.0262 355.152 45.5678C355.845 44.0991 356.319 42.9637 356.569 42.172C356.819 41.3699 356.964 40.797 357.006 40.4637C356.548 40.7137 355.97 41.2032 355.277 41.922C354.579 42.6303 353.907 43.4949 353.256 44.5053C352.616 45.5053 352.152 46.5887 351.86 47.7553Z" fill="white"/>
<path d="M395.917 52.2761C396.209 52.4428 396.376 52.7032 396.417 53.047C396.459 53.3803 396.396 53.672 396.23 53.922C393.756 57.3543 391.49 60.1928 389.438 62.4428C387.381 64.6824 385.324 66.5261 383.271 67.9845C381.73 69.0782 380.199 69.6303 378.688 69.6303C377.521 69.6303 376.49 69.3178 375.605 68.6928C375.021 68.2605 374.454 67.5105 373.896 66.4428C373.329 65.3907 373.021 63.849 372.98 61.8178C372.938 59.7761 373.438 57.1043 374.48 53.797C374.48 53.797 374.48 53.7761 374.48 53.7345C375.73 49.7084 377.199 46.6407 378.896 44.5261C380.605 42.4011 382.063 41.3178 383.271 41.2761C384.24 41.2345 384.876 41.6615 385.167 42.547C385.626 43.7553 385.074 45.4845 383.521 47.7345C381.98 49.974 379.699 52.349 376.688 54.8595C375.756 57.7918 375.313 60.0834 375.355 61.7345C375.396 63.3907 375.626 64.5834 376.042 65.3178C376.469 66.0574 376.813 66.5261 377.063 66.7345C378.313 67.6511 379.922 67.4011 381.896 65.9845C383.824 64.6407 385.771 62.8907 387.73 60.7345C389.699 58.5834 391.86 55.849 394.209 52.5261C394.417 52.2761 394.688 52.1251 395.021 52.0678C395.365 52.0001 395.667 52.0678 395.917 52.2761ZM382.834 43.922C382.376 44.2136 381.74 44.8334 380.938 45.7761C380.146 46.724 379.334 48.099 378.501 49.9011C380.011 48.4324 381.084 47.1824 381.709 46.1511C382.334 45.1251 382.709 44.3803 382.834 43.922Z" fill="white"/>
</g>
</svg>
